<?xml version="1.0" encoding="utf-8"?>
<!-- Generator: Adobe Illustrator 23.0.6, SVG Export Plug-In . SVG Version: 6.00 Build 0)  -->
<svg version="1.1" id="Layer_1" xmlns="http://www.w3.org/2000/svg" xmlns:xlink="http://www.w3.org/1999/xlink" x="0px" y="0px"
	 width="317.4px" height="36px" viewBox="0 0 317.4 36" style="enable-background:new 0 0 317.4 36;" xml:space="preserve">
<style type="text/css">
	.st0{fill:#FFFFFF;}
	.st1{fill:#ADD2DB;}
</style>
<g>
	<path class="st0" d="M5.5,24.6v0.9c0,4.2,1.8,6.4,5.6,6.4c3.5,0,5.2-2.5,5.2-5c0-3.6-1.8-5.2-4.9-6.2l-3.8-1.3
		c-5-1.9-7.2-4.6-7.2-9.5C0.5,3.5,4.7,0,11.2,0c8.8,0,9.7,5.5,9.7,9.1v0.8h-5.5V9.2c0-3.2-1.4-5-4.8-5C8.2,4.2,6,5.5,6,9.2
		c0,3,1.5,4.5,5.1,5.9l3.7,1.4c4.9,1.7,7,4.4,7,9.2c0,7.4-4.4,10.4-11.4,10.4C1.9,36,0,30.3,0,25.4v-0.8H5.5z"/>
	<path class="st0" d="M24.1,0.7h5.5v34.6h-5.5V0.7z"/>
	<path class="st0" d="M33.1,0.7h8.6l6.1,25.7h0.1l6-25.7h8.4v34.6h-5.2V6.5h-0.1l-6.9,28.8h-4.6L38.4,6.5h-0.1v28.8h-5.2V0.7z"/>
	<path class="st0" d="M65.1,18c0-12.4,3.5-18,11.4-18c7.9,0,11.4,5.6,11.4,18c0,12.4-3.5,18-11.4,18C68.5,36,65.1,30.4,65.1,18z
		 M82.3,17.9c0-11.6-2.6-13.7-5.9-13.7c-3.3,0-5.9,2-5.9,13.7c0,11.9,2.6,14,5.9,14C79.7,31.8,82.3,29.8,82.3,17.9z"/>
	<path class="st0" d="M90.7,0.7h6.7l10,25.8h0.1V0.7h5.2v34.6H106L96,8.8h-0.1v26.5h-5.2L90.7,0.7L90.7,0.7z"/>
	<path class="st0" d="M116.3,0.7h9.3c6.6,0,9.4,3.9,9.4,9.8c0,5.3-2.6,9.8-10.5,9.8h-5.1v15h-3.1L116.3,0.7L116.3,0.7z M119.4,17.7
		h5.2c4.1,0,7.3-1.8,7.3-7.2c0-5.2-2.6-7.2-7.3-7.2h-5.2V17.7z"/>
	<path class="st0" d="M143.1,0.7h3.9l10.2,34.6h-3.3L151,25.2h-12l-2.8,10.1h-3.3L143.1,0.7z M150.4,22.6l-5.3-19.5H145l-5.3,19.5
		H150.4z"/>
	<path class="st0" d="M157.6,0.7h3.1v24.9c0,5.2,2.2,7.7,6.7,7.7c4.5,0,6.7-2.5,6.7-7.7V0.7h3.1v24.9c0,7.3-3.5,10.3-9.8,10.3
		c-6.3,0-9.8-3-9.8-10.3V0.7z"/>
	<path class="st0" d="M180.2,0.7h3.1v32h14.2v2.6h-17.3V0.7z"/>
</g>
<g>
	<path class="st0" d="M219.7,8.6h-6v7.7h-1.4V0.8h1.4v6.6h6V0.8h1.4v15.5h-1.4V8.6z"/>
	<path class="st0" d="M226.4,0.8h1.7l4.5,15.5h-1.5l-1.2-4.5h-5.4l-1.2,4.5h-1.5L226.4,0.8z M229.6,10.6l-2.4-8.7h0l-2.4,8.7H229.6z
		"/>
	<path class="st0" d="M233.4,0.8h1.4v15.5h-1.4V0.8z"/>
	<path class="st0" d="M236.9,0.8h4.6c2.6,0,4,1.5,4,3.9c0,1.9-0.7,3.5-2.8,3.9v0c1.9,0.2,2.6,1.3,2.6,3.7l0,1.7
		c0,0.8,0.1,1.7,0.6,2.3h-1.6c-0.3-0.5-0.4-1.3-0.4-2.2l0-1.3c-0.1-2.7-0.6-3.6-3-3.6h-2.6v7.1h-1.4L236.9,0.8L236.9,0.8z
		 M238.3,8.1h2.4c2.2,0,3.4-1,3.4-3c0-1.9-0.8-3-3.3-3h-2.5V8.1z"/>
	<path class="st0" d="M259.6,14.4c-0.9,1.3-2.2,2.1-4.1,2.1c-2.6,0-4.3-1.8-4.3-4.1c0-1.6,0.8-2.9,2.2-4l1.3-1
		c-1.1-1.5-1.8-2.6-1.8-3.8c0-1.9,1.4-2.9,3.1-2.9c1.8,0,2.9,1.1,2.9,2.9c0,1.3-0.5,2.4-2.7,4l3.3,4.7c0.4-1,0.5-2,0.6-2.9h1.3
		c0,1.3-0.4,2.8-1.1,4l2,2.9h-1.5L259.6,14.4z M255.3,8.4c-2.2,1.5-2.7,2.7-2.7,3.9c0,1.8,1.4,3.1,3.1,3.1c1.2,0,2.6-0.8,3.2-1.9
		L255.3,8.4z M255.6,6.8c1.7-1.3,2.1-2.3,2.1-3.1c0-1-0.8-1.7-1.7-1.7c-1,0-1.8,0.7-1.8,1.7C254.2,4.5,254.8,5.6,255.6,6.8z"/>
	<path class="st0" d="M212.3,20.1h4.2c3,0,4.1,1.6,4.1,3.9c0,1.5-0.8,3-2.4,3.4v0c1.9,0.4,2.9,1.8,2.9,3.9c0,2.7-1.7,4.3-4.6,4.3
		h-4.2L212.3,20.1L212.3,20.1z M213.7,26.9h2.2c2.4,0,3.4-1,3.4-2.8c0-2.1-1.1-2.8-3.2-2.8h-2.4L213.7,26.9L213.7,26.9z M213.7,34.3
		h2.6c2.4,0,3.5-1.1,3.5-3.2s-1.2-3.2-3.5-3.2h-2.6V34.3z"/>
	<path class="st0" d="M222.6,20.1h7.6v1.2H224v5.6h5.8V28H224v6.3h6.4v1.2h-7.8L222.6,20.1L222.6,20.1z"/>
	<path class="st0" d="M235.1,20.1h1.7l4.5,15.5h-1.5l-1.2-4.5h-5.4l-1.2,4.5h-1.5L235.1,20.1z M238.3,29.8l-2.4-8.7h0l-2.4,8.7
		H238.3z"/>
	<path class="st0" d="M242,20.1h1.4v11.1c0,2.3,1,3.4,3,3.4s3-1.1,3-3.4V20.1h1.4v11.1c0,3.2-1.6,4.6-4.4,4.6s-4.4-1.3-4.4-4.6
		L242,20.1L242,20.1z"/>
	<path class="st0" d="M255.4,21.2h-3.9v-1.2h9.3v1.2h-4v14.3h-1.4V21.2z"/>
	<path class="st0" d="M264.5,29.3l-4.1-9.3h1.5l3.4,7.7l3.4-7.7h1.5l-4.1,9.3v6.2h-1.4V29.3z"/>
</g>
<path class="st1" d="M299,36c-9.9,0-18-8.1-18-18c0-9.9,8.1-18,18-18s18,8.1,18,18C317,27.9,308.9,36,299,36z M299,1
	c-9.4,0-17,7.6-17,17c0,9.4,7.6,17,17,17s17-7.6,17-17C316,8.6,308.4,1,299,1z"/>
<g>
	<path class="st0" d="M289.2,13.6h1.4v0.6h-1.4V13.6z"/>
	<path class="st0" d="M296.8,14.7v0.6h-2.7v-3.5h2.6v0.6h-1.8v0.8h1.6v0.6h-1.6v0.8H296.8z"/>
	<path class="st0" d="M298.4,15.3c-0.3-0.1-0.5-0.2-0.6-0.3l0.3-0.6c0.1,0.1,0.3,0.2,0.5,0.3c0.2,0.1,0.4,0.1,0.6,0.1
		c0.2,0,0.4,0,0.5-0.1c0.1-0.1,0.2-0.2,0.2-0.3c0-0.1,0-0.2-0.1-0.2c-0.1-0.1-0.1-0.1-0.2-0.1c-0.1,0-0.2-0.1-0.4-0.1
		c-0.3-0.1-0.5-0.1-0.6-0.2c-0.2-0.1-0.3-0.2-0.4-0.3c-0.1-0.1-0.2-0.3-0.2-0.6c0-0.2,0.1-0.4,0.2-0.5c0.1-0.2,0.3-0.3,0.5-0.4
		c0.2-0.1,0.5-0.1,0.8-0.1c0.2,0,0.4,0,0.6,0.1s0.4,0.1,0.6,0.2l-0.2,0.6c-0.3-0.2-0.6-0.3-1-0.3c-0.2,0-0.4,0-0.5,0.1
		c-0.1,0.1-0.2,0.2-0.2,0.3c0,0.1,0.1,0.2,0.2,0.3s0.3,0.1,0.6,0.2c0.3,0.1,0.5,0.1,0.6,0.2c0.2,0.1,0.3,0.2,0.4,0.3
		c0.1,0.1,0.2,0.3,0.2,0.5c0,0.2-0.1,0.4-0.2,0.5c-0.1,0.2-0.3,0.3-0.5,0.4c-0.2,0.1-0.5,0.1-0.8,0.1
		C299,15.4,298.7,15.4,298.4,15.3z"/>
	<path class="st0" d="M302.6,12.5h-1.1v-0.7h3v0.7h-1.1v2.8h-0.8V12.5z"/>
	<path class="st0" d="M307.6,13.6h1.4v0.6h-1.4V13.6z"/>
	<path class="st0" d="M289.9,17v6.9h-1.6v-5.6h-1.4V17H289.9z"/>
	<path class="st0" d="M297.2,17.8c0.5,0.6,0.8,1.4,0.8,2.5c0,0.8-0.1,1.5-0.4,2c-0.3,0.6-0.7,1-1.2,1.3c-0.5,0.3-1.2,0.4-1.9,0.4
		c-0.4,0-0.7,0-1.1-0.1c-0.3-0.1-0.6-0.2-0.9-0.4l0.6-1.2c0.3,0.2,0.8,0.3,1.3,0.3c0.6,0,1.1-0.2,1.4-0.5c0.3-0.3,0.5-0.8,0.6-1.5
		c-0.4,0.4-1,0.6-1.7,0.6c-0.4,0-0.8-0.1-1.2-0.3c-0.4-0.2-0.7-0.4-0.9-0.8c-0.2-0.3-0.3-0.7-0.3-1.1c0-0.5,0.1-0.9,0.3-1.2
		c0.2-0.3,0.5-0.6,0.9-0.8c0.4-0.2,0.8-0.3,1.3-0.3C295.9,16.9,296.7,17.2,297.2,17.8z M295.9,19.8c0.2-0.2,0.3-0.4,0.3-0.7
		c0-0.3-0.1-0.6-0.3-0.7c-0.2-0.2-0.5-0.3-0.9-0.3c-0.3,0-0.6,0.1-0.8,0.3c-0.2,0.2-0.3,0.4-0.3,0.8c0,0.3,0.1,0.6,0.3,0.8
		c0.2,0.2,0.5,0.3,0.9,0.3C295.4,20.1,295.7,20,295.9,19.8z"/>
	<path class="st0" d="M304.9,17.8c0.5,0.6,0.8,1.4,0.8,2.5c0,0.8-0.1,1.5-0.4,2c-0.3,0.6-0.7,1-1.2,1.3c-0.5,0.3-1.2,0.4-1.9,0.4
		c-0.4,0-0.7,0-1.1-0.1c-0.3-0.1-0.6-0.2-0.9-0.4l0.6-1.2c0.3,0.2,0.8,0.3,1.3,0.3c0.6,0,1.1-0.2,1.4-0.5c0.3-0.3,0.5-0.8,0.6-1.5
		c-0.4,0.4-1,0.6-1.7,0.6c-0.4,0-0.8-0.1-1.2-0.3c-0.4-0.2-0.7-0.4-0.9-0.8c-0.2-0.3-0.3-0.7-0.3-1.1c0-0.5,0.1-0.9,0.3-1.2
		c0.2-0.3,0.5-0.6,0.9-0.8c0.4-0.2,0.8-0.3,1.3-0.3C303.6,16.9,304.4,17.2,304.9,17.8z M303.6,19.8c0.2-0.2,0.3-0.4,0.3-0.7
		c0-0.3-0.1-0.6-0.3-0.7c-0.2-0.2-0.5-0.3-0.9-0.3c-0.3,0-0.6,0.1-0.8,0.3c-0.2,0.2-0.3,0.4-0.3,0.8c0,0.3,0.1,0.6,0.3,0.8
		c0.2,0.2,0.5,0.3,0.9,0.3C303.1,20.1,303.4,20,303.6,19.8z"/>
	<path class="st0" d="M310.5,17v6.9h-1.6v-5.6h-1.4V17H310.5z"/>
</g>
</svg>
