<?xml version="1.0" encoding="utf-8"?>
<!-- Generator: Adobe Illustrator 15.1.0, SVG Export Plug-In . SVG Version: 6.00 Build 0)  -->
<!DOCTYPE svg PUBLIC "-//W3C//DTD SVG 1.1//EN" "http://www.w3.org/Graphics/SVG/1.1/DTD/svg11.dtd">
<svg version="1.1" id="Layer_1" xmlns="http://www.w3.org/2000/svg" xmlns:xlink="http://www.w3.org/1999/xlink" x="0px" y="0px"
	 width="100px" height="28px" viewBox="0 0 100 28" enable-background="new 0 0 100 28" xml:space="preserve">
<path fill="#FFFFFF" d="M17.252,3.748h-0.675l2.484-2.738c0.181-0.197,0.339-0.35,0.498-0.547c0.18-0.13,0.319-0.348,0.537-0.395
	c0.318-0.086,0.695,0.111,0.793,0.462c0.059,0.153,0.102,0.459-0.018,0.591c-0.102,0.241-0.317,0.35-0.499,0.483L17.252,3.748z"/>
<path fill="#FFFFFF" d="M80.803,19.977h-1.999l-2.129-5.911h-4.897l-2.208,5.911h-1.377l6.198-15.308h0.457L80.803,19.977z
	 M74.211,7.539l-2.109,5.605h4.236L74.211,7.539z"/>
<path fill="#FFFFFF" d="M48.329,19.977h-2l-2.127-5.911h-4.901l-2.208,5.911h-1.379l6.201-15.308h0.459L48.329,19.977z
	 M41.738,7.539l-2.111,5.605h4.235L41.738,7.539z"/>
<path fill="#FFFFFF" d="M46.53,28h-0.601l-0.64-1.775h-1.47L43.156,28h-0.415l1.862-4.597h0.139L46.53,28z M44.55,24.265
	l-0.633,1.684h1.271L44.55,24.265z"/>
<path fill="#FFFFFF" d="M100,18.883c0,0-0.02,0.812,0,1.03h-7.173V4.997h7.054v1.03h-5.303v5.498h4.847v0.962h-4.847v6.396H100z"/>
<path fill="#FFFFFF" d="M21.985,18.883c0,0-0.022,0.812,0,1.03h-7.174V4.997h7.051v1.03h-5.304v5.498h4.849v0.962h-4.849v6.396
	H21.985z"/>
<path fill="#FFFFFF" d="M85.357,20.267c-1.199,0-2.262-0.265-3.161-0.788v-1.9c0.476,0.568,1.673,1.877,3.5,1.877
	c2.214,0,3.207-1.525,3.207-3.038c0-1.855-1.21-2.544-2.614-3.142c-2.213-0.975-2.786-1.207-3.325-1.708
	c-0.631-0.547-1.022-1.572-1.022-2.677c0-2.904,2.298-4.204,4.574-4.204c1.333,0,2.447,0.446,2.917,0.666v1.81
	c-0.422-0.515-1.588-1.732-3.168-1.732c-2.708,0-2.787,2.369-2.787,2.639c0,1.834,1.464,2.463,2.465,2.878
	c2.155,0.874,2.746,1.091,3.456,1.709c0.947,0.804,1.146,1.946,1.146,2.766C90.545,17.832,88.939,20.267,85.357,20.267"/>
<path fill="#FFFFFF" d="M58.59,28c-0.36,0-0.679-0.079-0.949-0.237v-0.569c0.143,0.17,0.502,0.563,1.05,0.563
	c0.666,0,0.965-0.459,0.965-0.913c0-0.557-0.364-0.764-0.786-0.943c-0.666-0.293-0.836-0.362-0.999-0.514
	c-0.189-0.163-0.307-0.471-0.307-0.802c0-0.873,0.69-1.264,1.373-1.264c0.401,0,0.737,0.135,0.876,0.199v0.545
	c-0.127-0.155-0.476-0.521-0.951-0.521c-0.813,0-0.836,0.713-0.836,0.793c0,0.551,0.439,0.74,0.74,0.864
	c0.646,0.262,0.824,0.327,1.037,0.512c0.284,0.242,0.344,0.586,0.344,0.832C60.147,27.27,59.666,28,58.59,28"/>
<path fill="#FFFFFF" d="M52.781,20.335c-1.2,0-2.264-0.266-3.162-0.788v-1.901c0.477,0.568,1.671,1.88,3.498,1.88
	c2.216,0,3.206-1.526,3.206-3.039c0-1.856-1.208-2.545-2.61-3.144c-2.215-0.974-2.791-1.205-3.328-1.708
	c-0.631-0.547-1.023-1.571-1.023-2.676c0-2.904,2.298-4.205,4.575-4.205c1.333,0,2.449,0.446,2.917,0.666V7.23
	c-0.421-0.515-1.588-1.732-3.168-1.732c-2.708,0-2.786,2.371-2.786,2.638c0,1.836,1.461,2.465,2.464,2.88
	c2.157,0.875,2.748,1.091,3.458,1.708c0.945,0.803,1.145,1.948,1.145,2.767C57.967,17.901,56.362,20.335,52.781,20.335"/>
<polygon fill="#FFFFFF" points="69.042,4.997 58.793,4.997 58.793,5.959 63.143,5.959 63.143,20.021 64.89,20.021 64.89,5.959 
	69.042,5.959 "/>
<path fill="#FFFFFF" d="M29.599,12.486c2.004-0.393,4.211-1.529,4.211-4.07c0-2.21-1.748-3.42-4.57-3.42h-4.194v14.98h1.748v-7.314
	h0.756l1.592,2.059l2.34,3.35c0.418,0.613,0.815,1.227,1.255,1.905c0.355-0.021,2.284,0,2.284,0L29.599,12.486z M27.946,11.883
	c-0.473,0.02-0.784,0.02-1.152-0.018V5.807h1.636c1.538,0,3.614,0.245,3.614,2.837C32.044,11.723,28.894,11.836,27.946,11.883"/>
<path fill="#FFFFFF" d="M40.007,25.75c0.601-0.117,1.264-0.459,1.264-1.222c0-0.664-0.524-1.027-1.372-1.027h-1.26V28h0.525v-2.196
	h0.227C39.652,25.798,40.007,25.75,40.007,25.75 M39.51,25.568c-0.143,0.007-0.236,0.007-0.346-0.004v-1.82h0.491
	c0.461,0,1.085,0.074,1.085,0.853C40.74,25.521,39.794,25.556,39.51,25.568"/>
<path fill="#FFFFFF" d="M50.513,25.75c0.601-0.117,1.264-0.458,1.264-1.222c0-0.663-0.524-1.026-1.372-1.026h-1.259V28h0.524v-2.196
	h0.227l0.478,0.618l0.702,1.006c0.126,0.183,0.244,0.368,0.377,0.572c0.107-0.007,0.686,0,0.686,0L50.513,25.75z M50.016,25.569
	c-0.142,0.007-0.236,0.007-0.346-0.005v-1.819h0.491c0.461,0,1.085,0.073,1.085,0.853C51.246,25.522,50.301,25.557,50.016,25.569"/>
<path fill="#FFFFFF" d="M4.028,8.966L12.89,0h-2.221L2.524,9.074c0,0-0.221,0.259-0.378,0.259V0H0v20h2.146V9.8
	c0.147,0.025,0.299,0.229,0.299,0.229L10.263,20h2.836L4.028,8.966z"/>
<rect x="54.58" y="23.488" fill="#FFFFFF" width="0.525" height="4.511"/>
</svg>
