<?xml version="1.0" encoding="utf-8"?>
<!-- Generator: Adobe Illustrator 15.1.0, SVG Export Plug-In . SVG Version: 6.00 Build 0)  -->
<!DOCTYPE svg PUBLIC "-//W3C//DTD SVG 1.1//EN" "http://www.w3.org/Graphics/SVG/1.1/DTD/svg11.dtd">
<svg version="1.1" id="Layer_1" xmlns="http://www.w3.org/2000/svg" xmlns:xlink="http://www.w3.org/1999/xlink" x="0px" y="0px"
	 width="116px" height="28px" viewBox="0 0 116 28" enable-background="new 0 0 116 28" xml:space="preserve">
<g>
	<path fill="#FFFFFF" d="M90.555,2.699h-3.281l-8.602,15.385h2.962l2.16-3.955h10.115l2.216,3.95h2.935L90.555,2.699z
		 M84.911,12.139l3.979-7.271l3.951,7.271H84.911z"/>
	<polygon fill="#FFFFFF" points="0,2.698 0,18.085 15.188,18.085 15.188,16.415 2.335,16.415 2.335,2.699 	"/>
	<polygon fill="#FFFFFF" points="13.25,2.702 10.837,8.144 12.578,8.144 15.759,2.702 	"/>
	<path fill="#FFFFFF" d="M28.189,0c-5.743,0-11.236,4.047-11.236,9.693c0,5.626,4.81,9.65,11.236,9.65
		c7.681,0,11.533-5.016,11.533-9.657C39.722,4.77,35.695,0,28.189,0 M28.187,17.422c-4.351,0-8.401-3.209-8.401-7.736
		c0-4.984,4.821-7.765,8.401-7.743c6.039,0.039,8.825,4.427,8.825,7.743C37.012,13.663,33.107,17.422,28.187,17.422"/>
	<path fill="#FFFFFF" d="M54.104,11.638c0,0,4.151-1.091,4.151-4.504c0-4.493-5.169-4.432-5.169-4.432L41.751,2.699v15.387h2.361
		v-6.448h6.934l5.13,6.442h2.959L54.104,11.638z M52.414,9.786H44.1V4.526l8.314,0.005c0,0,3.256-0.065,3.256,2.585
		C55.669,9.952,52.414,9.786,52.414,9.786"/>
	<polygon fill="#FFFFFF" points="100.912,2.697 100.912,18.084 116,18.084 116,16.415 103.249,16.415 103.249,2.698 	"/>
	<polygon fill="#FFFFFF" points="61.794,2.708 61.794,18.08 76.609,18.08 76.609,16.387 64.33,16.387 64.33,11.06 73.577,11.06 
		73.577,9.3 64.33,9.3 64.33,4.384 76.614,4.384 76.614,2.702 	"/>
	<polygon fill="#FFFFFF" points="73.621,0.2 69.494,0.2 67.582,2.188 	"/>
	<path fill="#FFFFFF" d="M22.769,9.203h0.402c0.165,0,0.271,0.031,0.325,0.105c0.024,0.032,0.055,0.086,0.055,0.157
		c0,0.119-0.081,0.256-0.345,0.256h-0.437V9.203z M22.769,10.675V9.99h0.508c0.347,0,0.658-0.192,0.658-0.533
		c0-0.161-0.079-0.324-0.274-0.43c-0.133-0.069-0.251-0.085-0.426-0.085h-0.83v1.733H22.769z"/>
	<path fill="#FFFFFF" d="M22.769,9.203h0.402c0.165,0,0.271,0.031,0.325,0.105c0.024,0.032,0.055,0.086,0.055,0.157
		c0,0.119-0.081,0.256-0.345,0.256h-0.437V9.203z M22.769,10.675V9.99h0.508c0.347,0,0.658-0.192,0.658-0.533
		c0-0.161-0.079-0.324-0.274-0.43c-0.133-0.069-0.251-0.085-0.426-0.085h-0.83v1.733H22.769z"/>
	<path fill="#FFFFFF" d="M25.338,10.013l0.294-0.774l0.295,0.774H25.338z M25.898,8.942h-0.447l-0.677,1.733h0.314l0.156-0.414h0.78
		l0.165,0.414h0.389L25.898,8.942z"/>
	<path fill="#FFFFFF" d="M25.338,10.013l0.294-0.774l0.295,0.774H25.338z M25.898,8.942h-0.447l-0.677,1.733h0.314l0.156-0.414h0.78
		l0.165,0.414h0.389L25.898,8.942z"/>
	<path fill="#FFFFFF" d="M28.101,9.192h0.487c0.258,0,0.36,0.125,0.36,0.252c0,0.218-0.211,0.269-0.391,0.269h-0.456V9.192z
		 M29.317,10.675L28.962,9.91c0.102-0.038,0.364-0.133,0.364-0.459c0-0.176-0.078-0.293-0.181-0.373
		c-0.127-0.096-0.278-0.136-0.531-0.136h-0.88v1.733h0.366V9.963h0.514l0.317,0.712H29.317z"/>
	<path fill="#FFFFFF" d="M28.101,9.192h0.487c0.258,0,0.36,0.125,0.36,0.252c0,0.218-0.211,0.269-0.391,0.269h-0.456V9.192z
		 M29.317,10.675L28.962,9.91c0.102-0.038,0.364-0.133,0.364-0.459c0-0.176-0.078-0.293-0.181-0.373
		c-0.127-0.096-0.278-0.136-0.531-0.136h-0.88v1.733h0.366V9.963h0.514l0.317,0.712H29.317z"/>
	<rect x="30.604" y="8.942" fill="#FFFFFF" width="0.367" height="1.733"/>
	<rect x="30.604" y="8.942" fill="#FFFFFF" width="0.367" height="1.733"/>
	<path fill="#FFFFFF" d="M32.474,10.192c0.017,0.063,0.054,0.174,0.236,0.223c0.1,0.03,0.187,0.034,0.253,0.034
		c0.336,0,0.405-0.15,0.405-0.229c0-0.165-0.159-0.205-0.25-0.226l-0.452-0.099c-0.296-0.063-0.44-0.24-0.44-0.461
		c0-0.329,0.31-0.517,0.72-0.517c0.201,0,0.397,0.043,0.556,0.15c0.122,0.083,0.152,0.167,0.17,0.223l-0.347,0.076
		c-0.025-0.061-0.085-0.198-0.373-0.198c-0.281,0-0.352,0.127-0.352,0.215c0,0.135,0.18,0.185,0.283,0.208l0.345,0.073
		c0.172,0.04,0.526,0.123,0.526,0.494c0,0.343-0.345,0.542-0.806,0.542c-0.244,0-0.458-0.049-0.627-0.162
		c-0.134-0.093-0.171-0.201-0.202-0.28L32.474,10.192z"/>
	<path fill="#FFFFFF" d="M32.474,10.192c0.017,0.063,0.054,0.174,0.236,0.223c0.1,0.03,0.187,0.034,0.253,0.034
		c0.336,0,0.405-0.15,0.405-0.229c0-0.165-0.159-0.205-0.25-0.226l-0.452-0.099c-0.296-0.063-0.44-0.24-0.44-0.461
		c0-0.329,0.31-0.517,0.72-0.517c0.201,0,0.397,0.043,0.556,0.15c0.122,0.083,0.152,0.167,0.17,0.223l-0.347,0.076
		c-0.025-0.061-0.085-0.198-0.373-0.198c-0.281,0-0.352,0.127-0.352,0.215c0,0.135,0.18,0.185,0.283,0.208l0.345,0.073
		c0.172,0.04,0.526,0.123,0.526,0.494c0,0.343-0.345,0.542-0.806,0.542c-0.244,0-0.458-0.049-0.627-0.162
		c-0.134-0.093-0.171-0.201-0.202-0.28L32.474,10.192z"/>
	<path fill="#FFFFFF" d="M0,20.803V28h116v-7.197H0z M24.554,22.433c1.46,0,2.125,0.956,2.125,2.021
		c0,1.063-0.665,2.019-2.125,2.019c-1.461,0-2.126-0.955-2.126-2.019C22.428,23.389,23.093,22.433,24.554,22.433 M16.96,23.429
		c0,0.645-0.643,0.834-1.556,0.834h-2.211v-1.667h2.211C16.317,22.596,16.96,22.792,16.96,23.429 M73.197,22.433
		c1.461,0,2.125,0.956,2.125,2.021c0,1.063-0.664,2.019-2.125,2.019s-2.127-0.955-2.127-2.019
		C71.07,23.389,71.736,22.433,73.197,22.433 M6.521,24.806H3.885v2.059H2.91V22.04h3.694c0.892,0,1.93,0.34,1.93,1.389
		C8.534,24.37,7.476,24.806,6.521,24.806 M17.074,26.864l-1.993-2.046h-1.888v2.046h-0.975V22.04h3.341
		c1.163,0,2.376,0.291,2.376,1.389c0,0.617-0.426,1.214-1.713,1.349l2.035,2.087H17.074z M24.554,26.987
		c-1.843,0-2.973-1.03-2.973-2.535c0-1.504,1.13-2.534,2.973-2.534c1.842,0,2.972,1.03,2.972,2.534
		C27.526,25.957,26.396,26.987,24.554,26.987 M35.619,22.595h-3.757v1.437h3.486v0.557h-3.486v2.276h-0.975V22.04h4.732V22.595z
		 M45.101,26.864H39.81V22.04h5.188v0.555h-4.213v1.491h3.663v0.557h-3.663v1.666h4.316V26.864z M50.274,26.947
		c-0.518,0-1.025-0.096-1.51-0.199l0.105-0.641c0.359,0.096,0.992,0.233,1.53,0.233c0.602,0,1.446-0.221,1.446-0.785
		c0-1.074-3.166-0.778-3.166-2.273c0-0.854,1.035-1.309,2.364-1.309c0.486,0,1.065,0.055,1.573,0.171l-0.148,0.634
		c-0.537-0.137-0.833-0.198-1.382-0.198c-0.591,0-1.288,0.137-1.288,0.641c0,0.923,3.165,0.709,3.165,2.294
		C52.964,26.54,51.751,26.947,50.274,26.947 M58.367,26.947c-0.517,0-1.024-0.096-1.509-0.199l0.105-0.641
		c0.359,0.096,0.992,0.233,1.53,0.233c0.6,0,1.446-0.221,1.446-0.785c0-1.074-3.166-0.778-3.166-2.273
		c0-0.854,1.035-1.309,2.362-1.309c0.486,0,1.067,0.055,1.574,0.171l-0.148,0.634c-0.538-0.137-0.834-0.198-1.383-0.198
		c-0.591,0-1.287,0.137-1.287,0.641c0,0.923,3.166,0.709,3.166,2.294C61.058,26.54,59.845,26.947,58.367,26.947 M66.196,26.864
		h-0.975V22.04h0.975V26.864z M73.197,26.987c-1.843,0-2.973-1.03-2.973-2.535c0-1.504,1.13-2.534,2.973-2.534
		s2.971,1.03,2.971,2.534C76.168,25.957,75.04,26.987,73.197,26.987 M85.359,26.864h-0.975l-3.921-3.802h-0.022v3.802h-0.912V22.04
		h0.985l3.912,3.808h0.021V22.04h0.912V26.864z M95.437,26.864H94.46l-3.921-3.802h-0.021v3.802h-0.914V22.04h0.985l3.912,3.808
		h0.022V22.04h0.912V26.864z M104.973,26.864h-5.291V22.04h5.188v0.555h-4.214v1.491h3.663v0.557h-3.663v1.666h4.316V26.864z
		 M113.451,26.864h-4.658V22.04h0.975v4.269h3.684V26.864z M6.282,22.596c0.902,0,1.276,0.292,1.276,0.826
		c0,0.584-0.571,0.827-1.412,0.827H3.885v-1.653H6.282"/>
</g>
</svg>
