<?xml version="1.0" encoding="utf-8"?>
<!-- Generator: Adobe Illustrator 23.0.6, SVG Export Plug-In . SVG Version: 6.00 Build 0)  -->
<svg version="1.1" id="Isolation_Mode" xmlns="http://www.w3.org/2000/svg" xmlns:xlink="http://www.w3.org/1999/xlink" x="0px"
	 y="0px" width="259.5px" height="35.9px" viewBox="0 0 259.5 35.9" style="enable-background:new 0 0 259.5 35.9;"
	 xml:space="preserve">
<style type="text/css">
	.st0{fill:#FFFFFF;}
</style>
<title>Logo</title>
<path class="st0" d="M48.9,8.4V2.7h3.9c3.5,0,5,0.9,5,2.9s-1.4,2.9-5,2.9L48.9,8.4z M45.2,0.3v18.3h3.7v-7.9h4.3
	c5.3,0,8.6-2,8.6-5.1s-3.3-5.2-8.6-5.2H45.2z M87.3,12c0,4.3-3.9,6.8-11.3,6.8c-3.7,0-10.6-0.8-10.6-8V0.3H69v10.5
	c0,3.5,2,5.6,7.1,5.6c5.1,0,7.6-1.5,7.6-4.4V0.3h3.6V12z M96.4,8.2V2.6h2c5.8,0,6.1,1,6.1,2.9C104.5,8.2,101,8.3,96.4,8.2
	 M112.4,18.6c-8.2-8.9-7.6-8.1-8.9-8.7c3.5-1,4.8-2.2,4.8-5s-3.3-4.6-8.1-4.6h-7.5v18.3h3.6v-8.1c3.1,0,4.3,0.4,5.5,1.7l6,6.5
	L112.4,18.6z"/>
<path class="st0" d="M113.8,18.6V0.3h15.4v2.4h-11.8v5.5h11.4v2.3h-11.4v5.7h12.1v2.4H113.8L113.8,18.6z"/>
<path class="st0" d="M146.7,2.5c4.2,0,9.4,2.7,9.4,6.9c0,3.9-4.4,7-9.7,7s-9.7-3.2-9.7-7S141.2,2.5,146.7,2.5 M160.1,9.5
	c0-5.2-6.1-9.4-13.7-9.4c-7.4,0-13.6,4.3-13.6,9.4s6.3,9.4,13.7,9.4C153.8,18.9,160.1,14.8,160.1,9.5"/>
<path class="st0" d="M164.3,18.6V0.3h3.7v15.9h12.1v2.4H164.3z"/>
<path class="st0" d="M195.6,2.5c4.2,0,9.4,2.7,9.4,6.9c0,3.9-4.4,7-9.7,7s-9.7-3.2-9.7-7S190.1,2.5,195.6,2.5 M209,9.5
	c0-5.2-6.1-9.4-13.7-9.4c-7.4,0-13.6,4.3-13.6,9.4s6.3,9.4,13.7,9.4S209,14.8,209,9.5 M225.5,18.9c-7.7,0-13.9-4.2-13.9-9.4
	S217.9,0,225.7,0c1.2,0,3.2-0.1,8.8,1.5v2.8c-2.8-1.2-5.8-1.8-8.9-1.9c-5.9,0-10.1,3.6-10.1,7c0,3.9,4.4,6.9,9.9,6.9
	c1.9,0,3.8-0.3,5.6-0.8v-3.5h-4.8V9.6h8.5v7.7C231.7,18.3,228.6,18.8,225.5,18.9"/>
<path class="st0" d="M249.3,9.6v9h-3.7V9.5l-9.7-9.1h4.3l7.4,7l7.7-7h4.4L249.3,9.6z"/>
<path class="st0" d="M50.4,29.5c-0.5-0.1-1.1-0.2-1.7-0.2c-0.7,0-1.2,0.3-1.2,0.7s0.6,0.8,1.8,1.2l0.4,0.1l0.3,0.1l0.2,0.1l0.2,0.1
	h0.1c1.4,0.5,2.3,1.2,2.3,2c0,1.4-1.5,2.3-3.8,2.3c-0.6,0-1.2-0.1-1.8-0.1c-0.7-0.1-1.4-0.3-2-0.6v-1.6c0.6,0.3,1.2,0.5,1.8,0.7
	c0.6,0.2,1.2,0.3,1.8,0.3c1,0,1.6-0.3,1.6-0.8c0-0.2-0.2-0.4-0.3-0.5c-0.5-0.3-1.1-0.5-1.7-0.7l-0.3-0.1c-0.7-0.2-1.3-0.5-1.9-0.9
	c-0.5-0.4-0.8-0.9-0.9-1.5c0-1.2,1.3-2,3.5-2c0.5,0,1.1,0,1.6,0.1c0.6,0.1,1.2,0.3,1.8,0.5v1.5C51.6,29.9,51,29.7,50.4,29.5
	 M63.8,31.1h-5.6c0.4-1.2,1.6-2,2.9-1.8C62.7,29.3,63.6,29.9,63.8,31.1 M66.2,32.1c0-3.5-2.9-4.2-5-4.2c-3.1,0-5.2,1.6-5.2,3.8
	c0,2.5,2.2,4.1,5.4,4.1c1.6,0.1,3.1-0.3,4.6-1v-1.4c-1.4,0.7-3,1.1-4.5,1.1c-1.8,0-3-0.9-3.2-2.3L66.2,32.1z M76.6,30.1
	c-0.6-0.4-1.3-0.6-2-0.6c-0.5,0-1.1,0.2-1.5,0.5c-0.2,0.1-0.4,0.3-0.5,0.5c-0.1,0.1-0.2,0.2-0.2,0.4c-0.1,0.2-0.2,0.3-0.2,0.5v4.3
	h-2.1v-7.6h2.1v1.6c1.3-1.3,2-1.7,3.1-1.7c0.9,0,1.8,0.3,2.5,0.7L76.6,30.1z M81.9,26.8c-0.7,0-1.2-0.3-1.2-0.8s0.5-0.8,1.2-0.8
	s1.2,0.3,1.2,0.8C83.1,26.4,82.6,26.7,81.9,26.8 M80.9,28.1H83v7.6h-2.1V28.1z M92.5,29.4c1.9,0,3.4,1.2,3.4,2.5
	c0,1.3-1.5,2.6-3.4,2.6s-3.5-1.2-3.5-2.5C89.1,30.6,90.7,29.4,92.5,29.4 M98.2,31.9c0-2.1-2.6-3.9-5.6-3.9c-3.1,0-5.7,1.8-5.7,3.9
	s2.6,3.9,5.6,3.9S98.2,34.1,98.2,31.9 M109,35.7v-0.9c-0.8,0.5-1.8,0.9-2.8,1h-1c-1.6,0.1-3-1-3.2-2.6c0,0,0,0,0,0v-5h2.1v4.6
	c0,1.2,0.7,1.8,2.2,1.8c1,0,2-0.3,2.7-1v-5.4h2.1v7.6L109,35.7z M120.2,29.5c-0.5-0.1-1.1-0.2-1.7-0.2c-0.7,0-1.2,0.3-1.2,0.7
	s0.6,0.8,1.8,1.2l0.4,0.1l0.3,0.1l0.2,0.1l0.2,0.1h0.1c1.4,0.5,2.3,1.2,2.3,2c0,1.4-1.5,2.3-3.8,2.3c-0.6,0-1.2-0.1-1.8-0.1
	c-0.7-0.1-1.4-0.3-2-0.6v-1.6c0.6,0.3,1.2,0.5,1.8,0.7c0.6,0.2,1.2,0.3,1.8,0.3c1,0,1.6-0.3,1.6-0.8c0-0.2-0.2-0.4-0.4-0.5
	c-0.5-0.3-1.1-0.5-1.7-0.7l-0.3-0.1c-0.7-0.2-1.3-0.5-1.9-0.9c-0.5-0.4-0.8-0.9-0.9-1.5c0-1.2,1.3-2,3.5-2c0.5,0,1.1,0,1.6,0.1
	c0.6,0.1,1.2,0.3,1.8,0.5v1.5C121.4,29.9,120.8,29.7,120.2,29.5 M139.6,35.9c-3,0-5.9-1.4-5.9-3.9c0-2.2,2.6-4,5.8-4
	c1,0,2,0.1,3,0.4V30c-0.9-0.4-1.9-0.6-2.9-0.6c-2.1,0-3.7,1.1-3.7,2.5c0,1.4,1.6,2.6,3.8,2.6c1,0,2-0.2,3-0.5v1.6
	C141.7,35.8,140.6,35.9,139.6,35.9 M151.7,29.4c1.9,0,3.4,1.2,3.4,2.5c0,1.3-1.6,2.6-3.4,2.6s-3.5-1.2-3.5-2.5
	C148.2,30.6,149.8,29.5,151.7,29.4 M157.3,31.9c0-2.1-2.6-3.9-5.6-3.9c-3.1,0-5.7,1.8-5.7,3.9s2.6,3.9,5.6,3.9
	S157.3,34.2,157.3,31.9"/>
<path class="st0" d="M161.2,24.2h2.1v11.5h-2.1V24.2z"/>
<path class="st0" d="M173,29.4c1.9,0,3.4,1.2,3.4,2.5c0,1.3-1.5,2.6-3.4,2.6c-1.9,0-3.5-1.2-3.5-2.5C169.5,30.6,171.1,29.5,173,29.4
	 M178.6,31.9c0-2.1-2.6-3.9-5.6-3.9c-3.1,0-5.7,1.8-5.7,3.9s2.6,3.9,5.7,3.9S178.6,34.2,178.6,31.9 M189.4,35.7v-0.9
	c-0.8,0.5-1.8,0.9-2.8,1h-1.1c-1.6,0.1-3-1-3.2-2.6c0,0,0,0,0,0v-5h2.1v4.6c0,1.2,0.7,1.8,2.2,1.8c1,0,2-0.3,2.7-1v-5.4h2.1v7.6
	L189.4,35.7z M202.7,30.1c-0.6-0.4-1.3-0.6-2-0.6c-0.5,0-1.1,0.2-1.5,0.5c-0.2,0.1-0.4,0.3-0.5,0.5c-0.1,0.1-0.2,0.2-0.2,0.4
	c-0.1,0.2-0.2,0.3-0.2,0.5v4.3h-2.1v-7.6h2.1v1.6c1.3-1.3,2-1.7,3.1-1.7c0.9,0,1.8,0.3,2.5,0.7L202.7,30.1z M219.9,35.9
	c-3,0-5.9-1.4-5.9-3.9c0-2.2,2.6-4,5.8-4c1,0,2,0.1,3,0.4V30c-0.9-0.4-1.9-0.6-3-0.6c-2.1,0-3.7,1.1-3.7,2.5c0,1.4,1.6,2.6,3.8,2.6
	c1,0,2-0.2,3-0.5v1.6C222,35.8,220.9,35.9,219.9,35.9 M232.3,34.2c-0.7,0.4-1.4,0.6-2.1,0.6c-1.1,0-1.6-0.3-1.6-0.9
	c0-0.9,1.8-1.5,3.8-1.9L232.3,34.2z M236,35.2v-0.9c-0.3,0.2-0.7,0.3-1.1,0.4c-0.3,0-0.5-0.2-0.5-0.7v-3.3c0-2.7-2.6-2.7-3.9-2.7
	c-1.4,0-2.8,0.4-4,1v1.5c1.1-0.7,2.4-1,3.7-1.1c1.3,0,2,0.4,2,1.4v0.3l-2.5,0.6c-2.2,0.5-3.6,1.4-3.6,2.4s1.2,1.9,3.1,1.9
	c1,0,2.1-0.3,3-0.8c0.1,0.6,0.5,0.8,1.2,0.8C234.4,35.9,235.2,35.7,236,35.2 M245.7,30.1c-0.6-0.4-1.3-0.6-2-0.6
	c-0.5,0-1.1,0.2-1.5,0.5c-0.2,0.1-0.4,0.3-0.5,0.5c-0.1,0.1-0.2,0.2-0.2,0.4c-0.1,0.2-0.2,0.3-0.2,0.5v4.3h-2.1v-7.6h2.1v1.6
	c1.3-1.3,2-1.7,3.1-1.7c0.9,0,1.8,0.3,2.5,0.7L245.7,30.1z M257,31.1h-5.6c0.4-1.2,1.6-2,2.9-1.8C255.8,29.3,256.7,29.9,257,31.1
	 M259.4,32.1c0-3.5-2.9-4.2-5-4.2c-3.1,0-5.2,1.6-5.2,3.8c0,2.5,2.2,4.1,5.5,4.1c1.6,0.1,3.1-0.3,4.6-1v-1.4
	c-1.4,0.7-2.9,1.1-4.5,1.1c-1.8,0-3-0.9-3.2-2.3L259.4,32.1z"/>
<g>
	<path class="st0" d="M16.1,16.6c0.2,0.1,0.3,0.2,0.5,0.3c0.1,0.1,0.2,0.2,0.4,0.3c0.3,0.2,0.5,0.5,0.8,0.7c0,0,0,0,0,0c0,0,0,0,0,0
		c0,0,0,0,0,0c-4-4-4-10.6,0-14.6c0,0,0,0,0,0c0,0,0,0,0,0l0.1-0.1c0,0,0,0,0,0c-4-4-10.6-4-14.6,0c0,0,0,0,0,0c-4,4-4,10.6,0,14.6
		C6.7,14.4,12.1,14,16.1,16.6z"/>
	<path class="st0" d="M32.4,17.9C32.4,17.9,32.4,17.9,32.4,17.9C28.3,22,21.7,22,17.7,18c0,0,0,0,0,0c3.3,3.3,3.9,8.2,1.8,12.1
		c0,0,0,0,0,0c-0.2,0.3-0.3,0.6-0.5,0.8c0,0,0,0.1-0.1,0.1c-0.2,0.3-0.3,0.5-0.5,0.7c0,0-0.1,0.1-0.1,0.1c-0.2,0.2-0.3,0.4-0.5,0.6
		c0,0,0,0,0,0c4,4,10.6,4,14.6,0C36.4,28.4,36.4,21.9,32.4,17.9z"/>
	<path class="st0" d="M14.7,25.2c0-0.1,0-0.1,0-0.2c0-0.3,0-0.6,0-0.8c0-0.1,0-0.2,0-0.3c0-0.2,0.1-0.4,0.1-0.6
		c0-0.2,0.1-0.3,0.1-0.5c0-0.2,0.1-0.3,0.1-0.5c0.1-0.2,0.1-0.4,0.2-0.6c0-0.1,0.1-0.2,0.1-0.4c0.1-0.2,0.2-0.5,0.3-0.7
		c0-0.1,0.1-0.1,0.1-0.2c0.1-0.3,0.3-0.5,0.4-0.7c0,0,0-0.1,0.1-0.1c0.2-0.3,0.4-0.5,0.6-0.8c0,0,0,0,0,0c0.2-0.3,0.4-0.5,0.7-0.8
		c0,0,0,0,0,0c-2.5,2.4-6,3.3-9.2,2.7c-0.1,0-0.1,0-0.2,0c-0.2-0.1-0.5-0.1-0.7-0.2c-0.3-0.1-0.6-0.2-0.9-0.3c0,0,0,0,0,0
		c-1.3-0.5-2.4-1.3-3.4-2.3c0,0,0,0,0,0c0,0,0,0,0,0c0,0-0.1,0.1-0.1,0.1c-4,4-4,10.6,0,14.6c4,4,10.6,4,14.6,0c0,0,0.1-0.1,0.1-0.1
		C15.7,30.4,14.7,27.8,14.7,25.2z"/>
	<path class="st0" d="M17.9,17.7c2-1.9,4.6-2.9,7.1-2.9c2.6,0,5.3,1,7.3,3c0,0,0,0,0,0c0,0,0,0,0,0c4-4.1,3.9-10.5-0.1-14.6
		c-4-4-10.4-4-14.5-0.1C21.8,7.2,21.8,13.6,17.9,17.7z"/>
</g>
</svg>
