<?xml version="1.0" encoding="utf-8"?>
<!-- Generator: Adobe Illustrator 15.1.0, SVG Export Plug-In . SVG Version: 6.00 Build 0)  -->
<!DOCTYPE svg PUBLIC "-//W3C//DTD SVG 1.1//EN" "http://www.w3.org/Graphics/SVG/1.1/DTD/svg11.dtd">
<svg version="1.1" id="Layer_1" xmlns="http://www.w3.org/2000/svg" xmlns:xlink="http://www.w3.org/1999/xlink" x="0px" y="0px"
	 width="108px" height="28px" viewBox="0 0 108 28" enable-background="new 0 0 108 28" xml:space="preserve">
<path fill="#FFFFFF" d="M31.68,17.022c-0.27,1.28-0.99,1.271-2.137,1.271h-2.527h-5.729v-8.125h4.266
	c2.443,0,2.631,0.003,2.631,0.747h0.74V8.148h-0.734c0,0.74-0.194,0.74-2.731,0.74h-4.17V4.205c0.02-0.892,0-1.849,0-2.872
	c0.403,0,6.984-0.001,7.776-0.001c1.183,0,2.038-0.024,2.038,0.841h0.773l0.384-2.148H19.852h-1.993v0.72
	c0.754,0,0.74,0.171,0.74,2.051c0,1.88,0.082,12.927,0.082,14.111c0,1.55-0.068,1.962-1.897,1.962c-1.03,0-1.735-0.54-2.949-2.33
	l-3.526-4.725C9.44,10.703,8.891,9.986,8.659,9.666c1.283-0.276,2.324-0.667,3.125-1.171c0.8-0.505,1.411-1.141,1.833-1.903
	c0.421-0.762,0.632-1.53,0.632-2.303c0-0.828-0.224-1.593-0.673-2.296c-0.449-0.703-1.082-1.21-1.9-1.525
	C10.855,0.157,9.553,0,7.766,0C7.532,0,0.383,0.023,0,0.023v0.72c0.783,0,0.767,0.607,0.767,2.053
	c0,1.194-0.001,13.847-0.001,14.039c0,1.438,0,2.034-0.76,2.034v0.722h4.142v-0.724c-0.751,0-0.752-0.618-0.752-1.867
	C3.395,15.815,3.4,1.484,3.4,0.983c0.991,0,2.42,0.003,3.385,0.003c1.535,0,2.682,0.335,3.439,1.002
	c0.757,0.667,1.138,1.629,1.138,2.761c0,1.299-0.44,2.343-1.317,3.135C9.167,8.677,7.877,9.072,6.176,9.072
	c-0.252,0-0.621-0.013-1.107-0.041l-0.14,0.414c0.885,1,1.819,2.114,2.797,3.341c0.607,0.743,1.306,1.668,2.1,2.778
	c1.426,1.999,2.442,3.341,3.049,4.028l19.38-0.009l0.375-2.562H31.68"/>
<path fill="#FFFFFF" d="M37.25,18.188h3.363c3.61,0,4.792-0.633,5.432-1c0.641-0.367,1.259-0.908,1.857-1.625
	c0.599-0.716,1.058-1.63,1.381-2.746c0.323-1.115,0.484-2.269,0.484-3.463c0-1.706-0.312-3.172-0.934-4.398
	c-0.621-1.225-1.557-2.163-2.81-2.814c-1.253-0.651-3.179-0.824-8.798-0.824c-0.025,0.45,0,8.863,0,8.863L37.25,18.188
	 M33.846,19.591v-0.669c0.759,0,0.774-0.235,0.774-2.014V2.8c0-1.722-0.029-2.111-0.774-2.111V0.028C35.293,0.028,41.491,0,42.257,0
	c2.285,0,4.123,0.288,5.514,0.86c1.39,0.575,2.57,1.535,3.542,2.885c0.969,1.349,1.455,2.996,1.455,4.942
	c0,1.396-0.229,2.703-0.687,3.924c-0.458,1.222-1.079,2.289-1.862,3.202c-0.783,0.913-1.623,1.636-2.519,2.168
	s-1.835,0.935-2.82,1.205c-0.984,0.271-2.335,0.406-4.051,0.406h-6.983V19.591z"/>
<path fill="#FFFFFF" d="M87.429,17.024c-0.27,1.28-0.989,1.272-2.136,1.272h-2.528h-5.729V10.17h4.266
	c2.443,0,2.63,0.003,2.63,0.747h0.843V8.149h-0.836c0,0.741-0.195,0.741-2.731,0.741h-4.17V4.208c0.021-0.893,0-1.85,0-2.873
	c0.402,0,6.984-0.003,7.774-0.003c1.185,0,2.039-0.022,2.039,0.842h0.772l0.385-2.147H75.603h-1.994v0.719
	c0.756,0,0.741,0.171,0.741,2.05c0,1.881,0.024,12.927,0.024,14.112c0,1.549-0.01,1.961-1.84,1.961
	c-0.221,0-0.425-0.027-0.622-0.082c-0.189-0.08-0.337-0.195-0.432-0.251c-0.186-0.11-0.96-0.788-2.315-2.037l-8.419-7.731
	c0,0,7.244-8.018,8.274-8.018c0.317,0-0.291-0.004,0.6-0.004V0.031h-2.255L57.982,9.75l0.391,0.382l6.371,5.876l1.445,1.365
	c1.349,1.27,2.345,2.22,2.345,2.22h2.096l0,0h1.908c0.528,0,0,0,0,0c2.328,0,2.935-0.006,3.056-0.006
	c8.017,0.006,9.1,0.006,9.488,0.006c0.375,0,2.926-0.002,2.926-0.002l0.375-2.568h-0.954"/>
<path fill="#FFFFFF" d="M89.33,19.591v-0.722c0.789,0,0.764-0.295,0.764-1.925c0-5.755-0.015-6.081,0.023-14.669
	c0-1.312,0.007-1.54-0.788-1.54V0.028h3.368c0,0,1.359,1.769,1.729,2.253l2.864,3.503l4.177,5.001
	c1.336,1.594,2.409,2.849,3.222,3.764c0.516,0.606,0.873,1.082,1.224,1.43c0,0,0.019-12.149,0.019-13.358
	c0-1.75-0.01-1.881-0.694-1.881V0.028H108v0.708c-0.674,0-0.684,0.079-0.684,1.893v16.962h-1.429L91.49,2.908
	c0,0-0.013,12.821-0.013,14.056c0,1.646,0.035,1.907,0.72,1.907v0.72H89.33"/>
<path fill="#FFFFFF" d="M8.496,27.887v-0.157 M8.496,27.887v-0.157 M8.792,24.519H7.951c-0.159,0-0.203,0.047-0.212,0.17
	l-0.219,0.003l-0.003-0.429h3.061l-0.001,0.426l-0.221,0.001c-0.011-0.124-0.053-0.171-0.213-0.171H9.292l0.005,2.728
	c0,0.382,0.069,0.483,0.299,0.483v0.157H8.496v-0.157c0.31,0,0.299-0.104,0.299-0.483L8.792,24.519z"/>
<path fill="#FFFFFF" d="M19.333,27.245c0,0.197,0.011,0.334,0.047,0.391c0.032,0.052,0.041,0.074,0.169,0.078l0.028,0.016v0.157
	h-0.99v-0.157l0.027-0.016c0.127-0.004,0.135-0.026,0.166-0.078c0.038-0.057,0.048-0.193,0.048-0.391v-1.163h-2.124v1.163
	c0,0.197,0.011,0.334,0.047,0.391c0.032,0.052,0.035,0.074,0.163,0.078l0.027,0.016v0.157h-0.99v-0.157l0.028-0.016
	c0.127-0.004,0.141-0.026,0.174-0.078c0.037-0.057,0.048-0.193,0.048-0.391v-2.343c0-0.196-0.011-0.333-0.048-0.39
	c-0.033-0.053-0.046-0.073-0.174-0.08l-0.028-0.015v-0.155l0.99-0.003v0.158l-0.027,0.015c-0.127,0.007-0.131,0.027-0.163,0.08
	c-0.036,0.057-0.047,0.193-0.047,0.39v0.929h2.124v-0.929c0-0.196-0.011-0.333-0.048-0.39c-0.032-0.053-0.038-0.073-0.166-0.08
	l-0.027-0.015v-0.155l0.99-0.003v0.158l-0.028,0.015c-0.128,0.007-0.137,0.027-0.169,0.08c-0.036,0.057-0.047,0.193-0.047,0.39
	V27.245"/>
<path fill="#FFFFFF" d="M33.182,26.494l-0.669-1.555l-0.675,1.555H33.182 M34.015,27.207c0.047,0.105,0.105,0.247,0.169,0.355
	c0.059,0.099,0.117,0.166,0.212,0.177l0.048,0.017v0.156h-1.053v-0.156l0.062-0.017c0.112-0.005,0.179-0.042,0.179-0.104
	c0-0.072-0.06-0.209-0.112-0.335l-0.244-0.599h-1.529L31.6,27.049c-0.047,0.112-0.186,0.46-0.186,0.543
	c0,0.111,0.033,0.131,0.198,0.146l0.046,0.018v0.154h-0.851v-0.154l0.034-0.018c0.127-0.011,0.229-0.119,0.287-0.256l0.945-2.111
	c0.164-0.366,0.346-0.751,0.489-1.126h0.168L34.015,27.207z"/>
<path fill="#FFFFFF" d="M40.834,27.264l0.971-2.467c0.111-0.28,0.049-0.328-0.089-0.339l-0.07-0.015v-0.157l0.768-0.001v0.158
	l-0.037,0.015c-0.111,0.013-0.181,0.125-0.285,0.376l-0.925,2.196c-0.127,0.297-0.245,0.596-0.339,0.914h-0.267
	c-0.085-0.309-0.202-0.605-0.308-0.861l-0.998-2.409c-0.068-0.168-0.143-0.209-0.233-0.215l-0.041-0.015v-0.157l0.997-0.001v0.158
	l-0.09,0.015c-0.102,0.006-0.151,0.037-0.103,0.163L40.834,27.264"/>
<path fill="#FFFFFF" d="M47.948,24.927c0-0.197-0.011-0.334-0.047-0.39c-0.031-0.052-0.042-0.074-0.169-0.079l-0.028-0.017v-0.179
	h2.554l-0.085,0.439l-0.186,0.004v-0.04c0-0.066-0.002-0.141-0.046-0.141c-0.268,0-1.338,0-1.486,0v1.413l1.178-0.002l0.068-0.223
	h0.159c-0.005,0.213-0.017,0.188-0.017,0.381c0,0.193,0.011,0.168,0.017,0.357h-0.159l-0.068-0.266c0,0-0.999,0.003-1.178,0.003
	v1.459c0.146,0,1.422-0.001,1.517-0.001c0.089,0,0.149,0.028,0.186-0.285h0.185c-0.052,0.251-0.084,0.53-0.084,0.53l-2.559,0.002
	v-0.141c0,0,0.171-0.042,0.202-0.095c0.037-0.058,0.047-0.194,0.047-0.394L47.948,24.927"/>
<path fill="#FFFFFF" d="M73.707,24.927c0-0.197-0.012-0.334-0.049-0.39c-0.031-0.052-0.041-0.074-0.17-0.079l-0.027-0.017v-0.179
	h2.554l-0.083,0.439l-0.188,0.004v-0.04c0-0.066-0.003-0.141-0.048-0.141c-0.266,0-1.337,0-1.486,0v1.413l1.179-0.002
	c0,0,0.036-0.107,0.043-0.175l0.026-0.048h0.159c-0.006,0.214-0.018,0.189-0.018,0.383c0,0.192,0.012,0.168,0.018,0.355h-0.158
	l-0.025-0.084c-0.008-0.068-0.042-0.182-0.042-0.182s-1,0.003-1.181,0.003v1.46c0.146,0,1.423-0.001,1.519-0.001
	c0.09,0,0.147,0.028,0.185-0.285h0.187c-0.054,0.25-0.085,0.531-0.085,0.531l-2.557,0.002v-0.143c0,0,0.169-0.042,0.201-0.095
	c0.037-0.057,0.049-0.193,0.049-0.392v-2.341"/>
<path fill="#FFFFFF" d="M55.827,24.905c0-0.199-0.011-0.336-0.049-0.391c-0.03-0.053-0.095-0.068-0.222-0.08l-0.009-0.015v-0.157
	c0.234,0.005,0.604,0.005,0.698,0l2.538,3.077h0.015v-2.436c0-0.2-0.011-0.335-0.047-0.392c-0.031-0.052-0.097-0.067-0.223-0.078
	l-0.007-0.016v-0.156c0.211,0.005,0.565,0.005,0.799,0v0.157l-0.008,0.015c-0.127,0.012-0.189,0.027-0.223,0.08
	c-0.037,0.057-0.049,0.191-0.049,0.391v2.983l-0.46,0.006l-2.501-3.052h-0.01v2.404c0,0.197,0.01,0.334,0.048,0.39
	c0.032,0.053,0.096,0.068,0.224,0.079l0.007,0.016v0.157c-0.234-0.004-0.587-0.004-0.799,0v-0.157l0.006-0.016
	c0.129-0.011,0.191-0.026,0.224-0.079c0.038-0.058,0.047-0.192,0.047-0.39V24.905"/>
<path fill="#FFFFFF" d="M87.366,24.905c0-0.199-0.012-0.336-0.049-0.391c-0.031-0.053-0.096-0.068-0.224-0.08l-0.006-0.015v-0.157
	c0.234,0.005,0.601,0.005,0.698,0l2.536,3.077h0.016v-2.436c0-0.2-0.008-0.335-0.046-0.392c-0.032-0.052-0.098-0.067-0.224-0.078
	l-0.007-0.016v-0.156c0.211,0.005,0.564,0.005,0.798,0v0.157l-0.007,0.015c-0.126,0.012-0.191,0.027-0.223,0.08
	c-0.036,0.057-0.048,0.191-0.048,0.391v2.983l-0.461,0.006l-2.501-3.052h-0.011v2.404c0,0.197,0.011,0.334,0.049,0.39
	c0.03,0.053,0.095,0.068,0.223,0.079l0.007,0.016v0.157c-0.232-0.004-0.587-0.004-0.798,0v-0.157l0.006-0.016
	c0.127-0.011,0.19-0.026,0.224-0.079c0.036-0.058,0.049-0.192,0.049-0.39v-2.342"/>
<path fill="#FFFFFF" d="M64.916,24.911c0-0.197-0.011-0.335-0.047-0.39c-0.031-0.053-0.033-0.074-0.16-0.078l-0.027-0.017V24.27
	h0.978v0.157l-0.026,0.017c-0.128,0.004-0.133,0.025-0.163,0.078c-0.037,0.057-0.048,0.193-0.048,0.39v1.794
	c0,0.742,0.393,0.954,1.093,0.954c0.574,0,1.095-0.212,1.095-1.077v-1.671c0-0.197-0.012-0.335-0.048-0.39
	c-0.032-0.053-0.036-0.068-0.165-0.078l-0.006-0.017V24.27c0.618,0.004,0.354,0.008,0.698,0v0.157l-0.008,0.017
	c-0.128,0.01-0.148,0.025-0.181,0.078c-0.037,0.057-0.047,0.193-0.047,0.39v1.507c0,1.117-0.43,1.565-1.503,1.565
	c-0.903,0-1.433-0.268-1.433-1.22v-1.853"/>
<path fill="#FFFFFF" d="M107.481,27.718c-0.309,0.184-0.834,0.282-1.157,0.282c-1.275,0-2.134-0.714-2.134-1.899
	c0-0.6,0.238-1.073,0.647-1.403c0.396-0.322,0.938-0.5,1.533-0.5c0.494,0,0.971,0.126,1.226,0.212l-0.107,0.452h-0.24
	c0,0,0.067-0.306-0.317-0.412c-0.172-0.047-0.455-0.057-0.65-0.057c-0.998,0-1.523,0.738-1.523,1.625
	c0,1.031,0.696,1.698,1.745,1.698c0.382,0,0.833-0.135,1.077-0.312l0.049,0.053L107.481,27.718"/>
<path fill="#FFFFFF" d="M1.125,25.454c-0.29,0-0.587,0.117-0.587,0.117l-0.004-0.898h1.762v-0.41l-2.003-0.009l0.003,1.629
	l0.052,0.033c0.186-0.055,0.382-0.152,0.613-0.152c0.359,0,0.927,0.202,0.888,0.85c-0.039,0.626-0.578,1.021-1.334,1.021
	c-0.225,0-0.322-0.026-0.453-0.065l-0.033,0.087c0.131,0.097,0.24,0.193,0.315,0.289c0.971,0,1.919-0.637,1.953-1.431
	C2.324,25.878,1.78,25.454,1.125,25.454"/>
<path fill="#FFFFFF" d="M98.609,24.239v0.155c0,0,0.203-0.021-0.008,0.355l-0.683,1.21l-0.095,0.157l-0.759-1.327
	c-0.07-0.124-0.131-0.239-0.232-0.339c-0.168-0.165-0.276-0.186-0.276-0.186h-0.574v0.139l0.101,0.015
	c0.133,0.018,0.421,0.308,0.695,0.777l0.66,1.127c0.03,0.053,0.046,0.124,0.046,0.209v0.305c0,0.2-0.01,0.744-0.046,0.804
	c-0.034,0.051-0.096,0.073-0.224,0.078l-0.027,0.016v0.156h1.102v-0.156l-0.028-0.016c-0.125-0.005-0.191-0.027-0.224-0.078
	c-0.035-0.06-0.046-0.606-0.046-0.804v-0.239c0-0.154,0.027-0.267,0.051-0.331l0.145-0.261l0.036-0.059h-0.004l0.649-1.159
	c0.14-0.251,0.34-0.394,0.511-0.394v-0.155H98.609"/>
<path fill="#FFFFFF" d="M58.332,0.692V0.023h-2.518c-0.756,0.003-1.377,0.005-1.725,0.005V0.69c0.745,0,0.775,0.389,0.775,2.11
	v14.108c0,1.78-0.017,2.014-0.775,2.014v0.669h1.837l0,0c0.812-0.002,2.056-0.004,2.405-0.004v-0.665
	c-0.746,0-0.774-0.385-0.774-2.106V2.708C57.557,0.927,57.573,0.692,58.332,0.692"/>
<line fill="none" x1="0" y1="0.023" x2="0" y2="0.744"/>
</svg>
